HIERARCHY
ROOT Hips
{
	OFFSET 0.00000 0.00000 0.00000
	CHANNELS 6 Xposition Yposition Zposition Yrotation Zrotation Xrotation 
	JOINT Lumbar
	{
		OFFSET 0 0 0
		CHANNELS 3 Zrotation Xrotation Yrotation
		JOINT Neck
		{
			OFFSET 0.00 0.2701 0.00
			CHANNELS 3 Zrotation Xrotation Yrotation
			End Site
			{
				OFFSET 0.00 0.1379 0.00
			}
		}
		JOINT RightShoulder
		{
			OFFSET 0.0119 0.2289 0.1181
			CHANNELS 3 Zrotation Xrotation Yrotation
			JOINT RightElbow
			{
				OFFSET 0.00 -0.1475 0.00
				CHANNELS 2 Zrotation Yrotation
				JOINT RightWrist
				{
					OFFSET 0.00 -0.1605 0.00
					CHANNELS 2 Zrotation Xrotation
					End Site
					{
						OFFSET 0.0040 -0.1068 0.0006
					}
				}
			}
		}
		JOINT LeftShoulder
		{
			OFFSET 0.0119 0.2289 -0.1181
			CHANNELS 3 Zrotation Xrotation Yrotation
			JOINT LeftElbow
			{
				OFFSET 0.00 -0.1475 0.00
				CHANNELS 2 Zrotation Yrotation
				JOINT LeftWrist
				{
					OFFSET 0.00 -0.1605 0.00
					CHANNELS 2 Zrotation Xrotation
					End Site
					{
						OFFSET 0.0040 -0.1068 -0.0006
					}
				}
			}
		}
	}
	JOINT RightHip
	{
		OFFSET 0.0316 -0.0424 0.0458
		CHANNELS 3 Zrotation Xrotation Yrotation
		JOINT RightKnee
		{
			OFFSET 0.00 -0.2438 0.00
			CHANNELS 1 Zrotation
			JOINT RightAnkle
			{
				OFFSET 0.00 -0.2449 0.00
				CHANNELS 3 Zrotation Xrotation Yrotation
				End Site
				{
					OFFSET 0.1237 -0.0542 0.0051
				}
			}
		}
	}
	JOINT LeftHip
	{
		OFFSET 0.0316 -0.0424 -0.0458
		CHANNELS 3 Zrotation Xrotation Yrotation
		JOINT LeftKnee
		{
			OFFSET 0.00 -0.2438 0.00
			CHANNELS 1 Zrotation
			JOINT LeftAnkle
			{
				OFFSET 0.00 -0.2449 0.00
				CHANNELS 3 Zrotation Xrotation Yrotation
				End Site
				{
					OFFSET 0.1237 -0.0542 -0.0051
				}
			}
		}
	}
}
MOTION
Frames: 11
Frame Time: 0.02
0 0.57926 -0 183.49947 0 -4.82925 5.79107 3.28045 -3.19521 -24.10884 4.60123 1.16738 18.41644 -13.71843 -1.4804 8.90643 80.11955 -0.09012 0.14944 15.44186 4.52695 39.28754 5.32836 -77.10582 -4.0109 0.87239 -4.37225 6.46132 2.24933 -3.47482 0.07237 -3.69739 -5.72356 -4.8569 3.28359 -5.52742 -3.16444 4.18372 7.30148 14.35872
-0.0001 0.57927 5e-05 183.55749 0 -4.83111 5.79861 3.29186 -3.12243 -24.09075 4.55381 1.19161 18.38661 -13.64724 -1.41428 8.90473 80.21572 -0.09336 0.16258 15.52477 4.47217 38.22639 5.32823 -77.03756 -4.05005 0.83929 -4.41887 6.46211 2.19945 -3.4163 0.05286 -3.71728 -5.72437 -4.84542 3.32429 -4.19055 -3.18817 4.37979 7.12189 12.95676
-0.00019 0.57927 9e-05 183.61534 0 -4.8329 5.80634 3.30314 -3.0502 -24.07309 4.50669 1.21558 18.35775 -13.57631 -1.34731 8.9032 80.31115 -0.09653 0.17549 15.60925 4.41781 37.15934 5.32885 -76.96996 -4.08834 0.8061 -4.46522 6.4629 2.15144 -3.35827 0.03346 -3.73729 -5.72691 -4.83417 3.36463 -2.86368 -3.21154 4.57433 6.94318 11.56515
-0.00029 0.57927 0.00014 183.67306 0 -4.83438 5.81486 3.31397 -2.97918 -24.05707 4.46036 1.23905 18.33186 -13.50599 -1.27769 8.90208 80.4041 -0.09962 0.18774 15.69914 4.36411 36.07009 5.33165 -76.90378 -4.12555 0.77336 -4.51099 6.46338 2.10153 -3.30168 0.01519 -3.75699 -5.72741 -4.82394 3.40392 -1.56328 -3.23333 4.76437 6.76699 10.20092
-0.00038 0.57928 0.00019 183.73145 0 -4.83749 5.81916 3.32714 -2.90142 -24.03254 4.40989 1.26554 18.28955 -13.43273 -1.22383 8.89844 80.50967 -0.10331 0.20364 15.75835 4.30635 35.11246 5.32192 -76.82946 -4.17087 0.73963 -4.55986 6.46512 2.05114 -3.2375 -0.00802 -3.77718 -5.72812 -4.80858 3.44875 -0.12206 -3.26303 4.97788 6.57834 8.69126
-0.00049 0.57928 0.00023 183.78836 0 -4.83716 5.8324 3.33538 -2.83822 -24.02591 4.36819 1.28536 18.28247 -13.36559 -1.13553 8.90038 80.58879 -0.10564 0.2117 15.88375 4.25764 33.86791 5.33937 -76.77286 -4.19738 0.70709 -4.60212 6.46443 2.00895 -3.1894 -0.02147 -3.79709 -5.73555 -4.80388 3.48186 1.01947 -3.2763 5.14179 6.41564 7.49097
-0.00065 0.57928 0.00026 183.84278 0 -4.82677 5.87128 3.32954 -2.81306 -24.07069 4.35082 1.28877 18.37179 -13.31566 -0.95539 8.91644 80.59127 -0.10483 0.19839 16.19036 4.23009 31.84972 5.42944 -76.76166 -4.18466 0.68538 -4.62658 6.4546 1.92442 -3.18647 -0.00106 -3.80976 -5.69778 -4.83107 3.48207 1.33758 -3.2406 5.1661 6.32782 7.14095
-0.00084 0.57927 0.00028 183.8956 0 -4.81298 5.91887 3.31876 -2.80302 -24.13281 4.34233 1.28507 18.49656 -13.2719 -0.73939 8.93842 80.56772 -0.10251 0.17708 16.564 4.21234 29.53849 5.54744 -76.76893 -4.15092 0.66374 -4.64423 6.44266 1.85698 -3.19973 0.02819 -3.82312 -5.67556 -4.86842 3.47053 1.35246 -3.1892 5.14081 6.26568 7.10374
-0.00101 0.57926 0.00031 183.94801 0 -4.80111 5.96213 3.31057 -2.78735 -24.18627 4.32963 1.28337 18.60626 -13.22489 -0.53784 8.9585 80.55836 -0.10054 0.15925 16.90892 4.19264 27.34354 5.65445 -76.77015 -4.11807 0.63677 -4.66487 6.43334 1.82773 -3.20497 0.04857 -3.84065 -5.69136 -4.8998 3.46473 1.50401 -3.14698 5.14002 6.18937 6.92552
-0.0012 0.57926 0.00034 184.00465 0 -4.78773 6.00772 3.30108 -2.76623 -24.24464 4.31745 1.28697 18.71308 -13.17927 -0.34537 8.9751 80.53893 -0.10011 0.14215 17.24817 4.16252 25.21058 5.75452 -76.76179 -4.12045 0.63104 -4.68633 6.41734 1.61695 -3.21263 0.08836 -3.84016 -5.52879 -4.93765 3.4573 1.6613 -3.09515 5.13114 6.12294 6.74207
-0.00136 0.57925 0.00035 184.05278 0 -4.77658 6.04956 3.29296 -2.76035 -24.29485 4.30655 1.2777 18.83241 -13.13285 -0.1239 9.00053 80.53442 -0.09598 0.12155 17.61302 4.15626 22.89094 5.87534 -76.77736 -4.04614 0.58253 -4.70399 6.41432 1.77272 -3.21959 0.09119 -3.87624 -5.72645 -4.96349 3.45043 1.73332 -3.06084 5.1271 6.04288 6.64442
